<?xml version="1.0" encoding="utf-8"?>
<!-- Generator: Adobe Illustrator 17.1.0, SVG Export Plug-In . SVG Version: 6.00 Build 0)  -->
<!DOCTYPE svg PUBLIC "-//W3C//DTD SVG 1.1//EN" "http://www.w3.org/Graphics/SVG/1.1/DTD/svg11.dtd">
<svg version="1.1" id="Layer_1" xmlns="http://www.w3.org/2000/svg" xmlns:xlink="http://www.w3.org/1999/xlink" x="0px" y="0px"
	 viewBox="0 0 46 46" enable-background="new 0 0 46 46" xml:space="preserve">
<g>
	<g>
		<path fill="#099CD8" d="M23,0C10.298,0,0,10.298,0,23.001V46h23c12.702,0,23-10.296,23-22.999C46,10.298,35.702,0,23,0"/>
		<path fill="#27235E" d="M11.925,23c0,1.41-1.143,2.557-2.555,2.557c-1.414,0-2.556-1.146-2.556-2.557
			c0-1.41,1.142-2.557,2.556-2.557C10.782,20.443,11.925,21.59,11.925,23 M16.185,25.557c1.414,0,2.557-1.146,2.557-2.557
			c0-1.41-1.142-2.557-2.557-2.557c-1.411,0-2.557,1.146-2.557,2.557C13.628,24.41,14.773,25.557,16.185,25.557 M16.185,34.074
			c-1.411,0-2.557,1.146-2.557,2.559c0,1.412,1.146,2.554,2.557,2.554c1.414,0,2.557-1.142,2.557-2.554
			C18.741,35.22,17.599,34.074,16.185,34.074 M16.185,27.26c-1.411,0-2.557,1.144-2.557,2.557c0,1.411,1.146,2.557,2.557,2.557
			c1.414,0,2.557-1.146,2.557-2.557C18.741,28.403,17.599,27.26,16.185,27.26"/>
	</g>
	<path fill="#FFFFFF" d="M23,25.557c1.411,0,2.557-1.146,2.557-2.557c0-1.41-1.146-2.557-2.557-2.557
		c-1.411,0-2.557,1.146-2.557,2.557C20.443,24.41,21.589,25.557,23,25.557"/>
</g>
</svg>
