<?xml version="1.0" encoding="utf-8"?>
<!-- Generator: Adobe Illustrator 17.1.0, SVG Export Plug-In . SVG Version: 6.00 Build 0)  -->
<!DOCTYPE svg PUBLIC "-//W3C//DTD SVG 1.1//EN" "http://www.w3.org/Graphics/SVG/1.1/DTD/svg11.dtd">
<svg version="1.1" id="Layer_1" xmlns="http://www.w3.org/2000/svg" xmlns:xlink="http://www.w3.org/1999/xlink" x="0px" y="0px"
	 viewBox="0 0 130.479 105.938" enable-background="new 0 0 130.479 105.938" xml:space="preserve">
<g>
	<line fill="none" stroke="#27235E" stroke-miterlimit="10" x1="31.513" y1="79.353" x2="31.513" y2="23.353"/>
	<rect x="27.509" y="23.353" fill="none" stroke="#27235E" stroke-miterlimit="10" width="20.799" height="56"/>
	<circle fill="none" stroke="#27235E" stroke-miterlimit="10" cx="65.133" cy="51.353" r="9.601"/>
	<line fill="none" stroke="#27235E" stroke-miterlimit="10" x1="27.515" y1="41.744" x2="48.31" y2="41.744"/>
	<line fill="none" stroke="#27235E" stroke-miterlimit="10" x1="27.515" y1="60.959" x2="48.31" y2="60.959"/>
	<rect x="83.556" y="23.353" fill="none" stroke="#27235E" stroke-miterlimit="10" width="20.801" height="18.393"/>
	<rect x="83.556" y="19.347" fill="none" stroke="#27235E" stroke-miterlimit="10" width="16.797" height="4.006"/>
	<rect x="31.513" y="19.347" fill="none" stroke="#27235E" stroke-miterlimit="10" width="16.795" height="4.006"/>
	<rect x="100.353" y="23.353" fill="none" stroke="#27235E" stroke-miterlimit="10" width="4.006" height="18.393"/>
	<rect x="83.556" y="41.745" fill="none" stroke="#27235E" stroke-miterlimit="10" width="16.797" height="4.006"/>
	<rect x="83.556" y="60.953" fill="none" stroke="#27235E" stroke-miterlimit="10" width="20.801" height="18.393"/>
	<rect x="83.556" y="56.947" fill="none" stroke="#27235E" stroke-miterlimit="10" width="16.797" height="4.006"/>
	<rect x="100.353" y="60.953" fill="none" stroke="#27235E" stroke-miterlimit="10" width="4.006" height="18.393"/>
	<rect x="83.556" y="79.346" fill="none" stroke="#27235E" stroke-miterlimit="10" width="16.797" height="4.006"/>
	<rect x="31.513" y="79.346" fill="none" stroke="#27235E" stroke-miterlimit="10" width="16.795" height="4.006"/>
</g>
<g>
	<line fill="none" stroke="#27235E" stroke-miterlimit="10" x1="7.444" y1="17.17" x2="7.444" y2="0.481"/>
	<g>
		<polyline fill="none" stroke="#27235E" stroke-miterlimit="10" points="0,0.481 0,105.481 130,105.481 130,0.481 		"/>
		<g>
			<g>
				<line fill="none" stroke="#27235E" stroke-miterlimit="10" x1="24.133" y1="0.481" x2="25.133" y2="0.481"/>
				
					<line fill="none" stroke="#27235E" stroke-miterlimit="10" stroke-dasharray="2.0366,2.0366" x1="27.17" y1="0.481" x2="127.982" y2="0.481"/>
				<line fill="none" stroke="#27235E" stroke-miterlimit="10" x1="129" y1="0.481" x2="130" y2="0.481"/>
			</g>
		</g>
		<g>
			<g>
				<line fill="none" stroke="#27235E" stroke-miterlimit="10" x1="0" y1="0.481" x2="1" y2="0.481"/>
				
					<line fill="none" stroke="#27235E" stroke-miterlimit="10" stroke-dasharray="1.8146,1.8146" x1="2.814" y1="0.481" x2="5.537" y2="0.481"/>
				<line fill="none" stroke="#27235E" stroke-miterlimit="10" x1="6.444" y1="0.481" x2="7.444" y2="0.481"/>
			</g>
		</g>
		<path fill="none" stroke="#27235E" stroke-miterlimit="10" stroke-dasharray="2" d="M24.133,0.481
			c0,9.217-7.471,16.689-16.688,16.689"/>
	</g>
</g>
</svg>
