<?xml version="1.0" encoding="utf-8"?>
<!-- Generator: Adobe Illustrator 17.1.0, SVG Export Plug-In . SVG Version: 6.00 Build 0)  -->
<!DOCTYPE svg PUBLIC "-//W3C//DTD SVG 1.1//EN" "http://www.w3.org/Graphics/SVG/1.1/DTD/svg11.dtd">
<svg version="1.1" id="Layer_1" xmlns="http://www.w3.org/2000/svg" xmlns:xlink="http://www.w3.org/1999/xlink" x="0px" y="0px"
	 viewBox="0 0 109 82" enable-background="new 0 0 109 82" xml:space="preserve">
<g>
	<g>
		<polyline fill="none" stroke="#27235E" stroke-miterlimit="10" points="3.964,0 3.964,81.693 105.109,81.693 105.109,0 		"/>
	</g>
</g>
<g>
	<circle fill="none" stroke="#27235E" stroke-miterlimit="10" cx="55.813" cy="42.772" r="7.47"/>
	<g>
		
			<rect x="70.148" y="17.872" transform="matrix(0.7071 -0.7071 0.7071 0.7071 5.219 62.6538)" fill="none" stroke="#27235E" stroke-miterlimit="10" width="16.183" height="14.309"/>
		<g>
			
				<rect x="69.416" y="13.434" transform="matrix(-0.7072 -0.707 0.707 -0.7072 107.0498 84.269)" fill="none" stroke="#27235E" stroke-miterlimit="10" width="3.117" height="13.068"/>
			
				<rect x="81.302" y="13.252" transform="matrix(0.7071 -0.7071 0.7071 0.7071 9.8393 64.5681)" fill="none" stroke="#27235E" stroke-miterlimit="10" width="3.117" height="14.31"/>
			
				<rect x="81.741" y="25.759" transform="matrix(-0.7074 -0.7069 0.7069 -0.7074 119.3951 114.0185)" fill="none" stroke="#27235E" stroke-miterlimit="10" width="3.117" height="13.069"/>
		</g>
	</g>
	<g>
		
			<rect x="70.144" y="53.357" transform="matrix(0.7071 0.7071 -0.7071 0.7071 65.7033 -37.5979)" fill="none" stroke="#27235E" stroke-miterlimit="10" width="16.184" height="14.309"/>
		
			<rect x="81.742" y="46.718" transform="matrix(0.7072 -0.707 0.707 0.7072 -13.2595 74.4853)" fill="none" stroke="#27235E" stroke-miterlimit="10" width="3.117" height="13.068"/>
		
			<rect x="81.301" y="57.972" transform="matrix(0.7074 0.7069 -0.7069 0.7074 70.2841 -39.511)" fill="none" stroke="#27235E" stroke-miterlimit="10" width="3.117" height="14.311"/>
		
			<rect x="69.419" y="59.038" transform="matrix(0.7071 -0.7071 0.7071 0.7071 -25.5772 69.3939)" fill="none" stroke="#27235E" stroke-miterlimit="10" width="3.117" height="13.067"/>
	</g>
	<path fill="none" stroke="#27235E" stroke-miterlimit="10" d="M94.743,42.772c0,2.575-2.091,4.667-4.669,4.667
		c-2.577,0-4.667-2.093-4.667-4.667c0-2.577,2.09-4.669,4.667-4.669C92.652,38.103,94.743,40.195,94.743,42.772z"/>
</g>
<g>
	
		<rect x="25.043" y="53.357" transform="matrix(-0.7071 0.7071 -0.7071 -0.7071 99.3513 79.8702)" fill="none" stroke="#27235E" stroke-miterlimit="10" width="16.183" height="14.309"/>
	<g>
		
			<rect x="38.841" y="59.036" transform="matrix(0.7072 0.707 -0.707 0.7072 58.1873 -9.364)" fill="none" stroke="#27235E" stroke-miterlimit="10" width="3.117" height="13.068"/>
		
			<rect x="26.955" y="57.976" transform="matrix(-0.7071 0.7071 -0.7071 -0.7071 94.7299 91.0245)" fill="none" stroke="#27235E" stroke-miterlimit="10" width="3.117" height="14.31"/>
		
			<rect x="26.515" y="46.71" transform="matrix(0.7074 0.7069 -0.7069 0.7074 45.8517 -4.2624)" fill="none" stroke="#27235E" stroke-miterlimit="10" width="3.117" height="13.069"/>
	</g>
</g>
<g>
	
		<rect x="25.045" y="17.872" transform="matrix(-0.7071 -0.7071 0.7071 -0.7071 38.872 66.1545)" fill="none" stroke="#27235E" stroke-miterlimit="10" width="16.184" height="14.309"/>
	
		<rect x="26.515" y="25.753" transform="matrix(-0.7072 0.707 -0.707 -0.7072 70.7542 35.2724)" fill="none" stroke="#27235E" stroke-miterlimit="10" width="3.117" height="13.068"/>
	
		<rect x="26.955" y="13.255" transform="matrix(-0.7074 -0.7069 0.7069 -0.7074 34.2549 55.0038)" fill="none" stroke="#27235E" stroke-miterlimit="10" width="3.117" height="14.311"/>
	
		<rect x="38.838" y="13.434" transform="matrix(-0.7071 0.7071 -0.7071 -0.7071 83.0793 5.5217)" fill="none" stroke="#27235E" stroke-miterlimit="10" width="3.117" height="13.067"/>
</g>
</svg>
