<?xml version="1.0" encoding="utf-8"?>
<!-- Generator: Adobe Illustrator 17.1.0, SVG Export Plug-In . SVG Version: 6.00 Build 0)  -->
<!DOCTYPE svg PUBLIC "-//W3C//DTD SVG 1.1//EN" "http://www.w3.org/Graphics/SVG/1.1/DTD/svg11.dtd">
<svg version="1.1" id="Layer_1" xmlns="http://www.w3.org/2000/svg" xmlns:xlink="http://www.w3.org/1999/xlink" x="0px" y="0px"
	 viewBox="0 0 130.849 105.849" enable-background="new 0 0 130.849 105.849" xml:space="preserve">
<g>
	<line fill="none" stroke="#27235E" stroke-miterlimit="10" x1="7.903" y1="17.182" x2="7.903" y2="0.494"/>
	<g>
		<polyline fill="none" stroke="#27235E" stroke-miterlimit="10" points="0.459,0.494 0.459,105.494 130.459,105.494 130.459,0.494 
					"/>
		<g>
			<g>
				<line fill="none" stroke="#27235E" stroke-miterlimit="10" x1="24.592" y1="0.494" x2="25.592" y2="0.494"/>
				
					<line fill="none" stroke="#27235E" stroke-miterlimit="10" stroke-dasharray="2.0366,2.0366" x1="27.628" y1="0.494" x2="128.441" y2="0.494"/>
				<line fill="none" stroke="#27235E" stroke-miterlimit="10" x1="129.459" y1="0.494" x2="130.459" y2="0.494"/>
			</g>
		</g>
		<g>
			<g>
				<line fill="none" stroke="#27235E" stroke-miterlimit="10" x1="0.459" y1="0.494" x2="1.459" y2="0.494"/>
				
					<line fill="none" stroke="#27235E" stroke-miterlimit="10" stroke-dasharray="1.8146,1.8146" x1="3.273" y1="0.494" x2="5.996" y2="0.494"/>
				<line fill="none" stroke="#27235E" stroke-miterlimit="10" x1="6.903" y1="0.494" x2="7.903" y2="0.494"/>
			</g>
		</g>
		<path fill="none" stroke="#27235E" stroke-miterlimit="10" stroke-dasharray="2" d="M24.592,0.494
			c0,9.217-7.472,16.688-16.689,16.688"/>
	</g>
</g>
<g>
	<path fill="none" stroke="#27235E" stroke-miterlimit="10" d="M24.809,38.001h3.442c0-1.901-1.541-3.442-3.442-3.442
		c-1.901,0-3.442,1.541-3.442,3.442c0,1.901,1.541,3.442,3.442,3.442V38.001z"/>
	<path fill="none" stroke="#27235E" stroke-miterlimit="10" d="M64.809,34.558c-1.901,0-3.442,1.541-3.442,3.442h6.885
		C68.251,36.099,66.71,34.558,64.809,34.558z"/>
	<path fill="none" stroke="#27235E" stroke-miterlimit="10" d="M104.809,34.558c-1.901,0-3.442,1.541-3.442,3.442h3.442v3.442
		c1.901,0,3.442-1.541,3.442-3.442C108.251,36.099,106.71,34.558,104.809,34.558z"/>
	<path fill="none" stroke="#27235E" stroke-miterlimit="10" d="M24.809,64.558c-1.901,0-3.442,1.541-3.442,3.442
		c0,1.901,1.541,3.442,3.442,3.442c1.901,0,3.442-1.541,3.442-3.442h-3.442V64.558z"/>
	<path fill="none" stroke="#27235E" stroke-miterlimit="10" d="M64.809,71.443c1.901,0,3.442-1.541,3.442-3.442h-6.885
		C61.367,69.902,62.908,71.443,64.809,71.443z"/>
	<path fill="none" stroke="#27235E" stroke-miterlimit="10" d="M104.809,64.558v3.442h-3.442c0,1.901,1.541,3.442,3.442,3.442
		c1.901,0,3.442-1.541,3.442-3.442C108.251,66.099,106.71,64.558,104.809,64.558z"/>
	<rect x="24.809" y="38.001" fill="none" stroke="#27235E" stroke-miterlimit="10" width="80" height="30"/>
</g>
</svg>
