<?xml version="1.0" encoding="utf-8"?>
<!-- Generator: Adobe Illustrator 17.1.0, SVG Export Plug-In . SVG Version: 6.00 Build 0)  -->
<!DOCTYPE svg PUBLIC "-//W3C//DTD SVG 1.1//EN" "http://www.w3.org/Graphics/SVG/1.1/DTD/svg11.dtd">
<svg version="1.1" id="Layer_1" xmlns="http://www.w3.org/2000/svg" xmlns:xlink="http://www.w3.org/1999/xlink" x="0px" y="0px"
	 viewBox="0 0 130.849 105.849" enable-background="new 0 0 130.849 105.849" xml:space="preserve">
<g>
	<line fill="none" stroke="#27235E" stroke-miterlimit="10" x1="7.903" y1="17.088" x2="7.903" y2="0.4"/>
	<g>
		<polyline fill="none" stroke="#27235E" stroke-miterlimit="10" points="0.459,0.4 0.459,105.4 130.459,105.4 130.459,0.4 		"/>
		<g>
			<g>
				<line fill="none" stroke="#27235E" stroke-miterlimit="10" x1="24.592" y1="0.4" x2="25.592" y2="0.4"/>
				
					<line fill="none" stroke="#27235E" stroke-miterlimit="10" stroke-dasharray="2.0366,2.0366" x1="27.628" y1="0.4" x2="128.441" y2="0.4"/>
				<line fill="none" stroke="#27235E" stroke-miterlimit="10" x1="129.459" y1="0.4" x2="130.459" y2="0.4"/>
			</g>
		</g>
		<g>
			<g>
				<line fill="none" stroke="#27235E" stroke-miterlimit="10" x1="0.459" y1="0.4" x2="1.459" y2="0.4"/>
				
					<line fill="none" stroke="#27235E" stroke-miterlimit="10" stroke-dasharray="1.8146,1.8146" x1="3.273" y1="0.4" x2="5.996" y2="0.4"/>
				<line fill="none" stroke="#27235E" stroke-miterlimit="10" x1="6.903" y1="0.4" x2="7.903" y2="0.4"/>
			</g>
		</g>
		<path fill="none" stroke="#27235E" stroke-miterlimit="10" stroke-dasharray="2" d="M24.592,0.4
			c0,9.217-7.472,16.688-16.689,16.688"/>
	</g>
</g>
<g>
	<path fill="none" stroke="#27235E" stroke-miterlimit="10" d="M84.245,37.906L84.245,37.906h17.217l0,0
		c0,0-1.984-4.004-8.609-4.004C86.229,33.902,84.245,37.906,84.245,37.906z"/>
	<rect x="25.465" y="37.893" fill="none" stroke="#27235E" stroke-miterlimit="10" width="80" height="30"/>
	<path fill="none" stroke="#27235E" stroke-miterlimit="10" d="M56.859,37.893L56.859,37.893h17.217l0,0
		c0,0-1.984-4.004-8.609-4.004C58.843,33.889,56.859,37.893,56.859,37.893z"/>
	<path fill="none" stroke="#27235E" stroke-miterlimit="10" d="M29.471,37.893L29.471,37.893h17.217l0,0
		c0,0-1.984-4.004-8.609-4.004C31.455,33.889,29.471,37.893,29.471,37.893z"/>
	<path fill="none" stroke="#27235E" stroke-miterlimit="10" d="M46.688,67.893L46.688,67.893H29.471l0,0
		c0,0,1.984,4.004,8.609,4.004C44.704,71.897,46.688,67.893,46.688,67.893z"/>
	<path fill="none" stroke="#27235E" stroke-miterlimit="10" d="M74.074,67.906L74.074,67.906H56.857l0,0
		c0,0,1.984,4.004,8.609,4.004C72.089,71.91,74.074,67.906,74.074,67.906z"/>
	<path fill="none" stroke="#27235E" stroke-miterlimit="10" d="M101.461,67.906L101.461,67.906H84.245l0,0
		c0,0,1.984,4.004,8.609,4.004C99.477,71.91,101.461,67.906,101.461,67.906z"/>
</g>
</svg>
