<?xml version="1.0" encoding="utf-8"?>
<!-- Generator: Adobe Illustrator 17.1.0, SVG Export Plug-In . SVG Version: 6.00 Build 0)  -->
<!DOCTYPE svg PUBLIC "-//W3C//DTD SVG 1.1//EN" "http://www.w3.org/Graphics/SVG/1.1/DTD/svg11.dtd">
<svg version="1.1" id="Layer_1" xmlns="http://www.w3.org/2000/svg" xmlns:xlink="http://www.w3.org/1999/xlink" x="0px" y="0px"
	 viewBox="0 0 109 82" enable-background="new 0 0 109 82" xml:space="preserve">
<g>
	<line fill="none" stroke="#27235E" stroke-miterlimit="10" x1="9.902" y1="13.238" x2="9.902" y2="0.31"/>
	<g>
		<polyline fill="none" stroke="#27235E" stroke-miterlimit="10" points="4.135,0.31 4.135,81.652 104.844,81.652 104.844,0.31 		
			"/>
		<g>
			<g>
				<line fill="none" stroke="#27235E" stroke-miterlimit="10" x1="22.83" y1="0.31" x2="23.605" y2="0.31"/>
				
					<line fill="none" stroke="#27235E" stroke-miterlimit="10" stroke-dasharray="2.0366,2.0366" x1="25.183" y1="0.31" x2="103.281" y2="0.31"/>
				<line fill="none" stroke="#27235E" stroke-miterlimit="10" x1="104.07" y1="0.31" x2="104.844" y2="0.31"/>
			</g>
		</g>
		<g>
			<g>
				<line fill="none" stroke="#27235E" stroke-miterlimit="10" x1="4.135" y1="0.31" x2="4.909" y2="0.31"/>
				
					<line fill="none" stroke="#27235E" stroke-miterlimit="10" stroke-dasharray="1.8145,1.8145" x1="6.316" y1="0.31" x2="8.424" y2="0.31"/>
				<line fill="none" stroke="#27235E" stroke-miterlimit="10" x1="9.127" y1="0.31" x2="9.902" y2="0.31"/>
			</g>
		</g>
		<path fill="none" stroke="#27235E" stroke-miterlimit="10" stroke-dasharray="2" d="M22.83,0.31c0,7.14-5.789,12.928-12.93,12.928
			"/>
	</g>
</g>
<rect x="31.25" y="28.584" fill="none" stroke="#27235E" stroke-miterlimit="10" width="46.481" height="30.988"/>
<path fill="none" stroke="#27235E" stroke-miterlimit="10" d="M58.061,25.485v3.102h13.338v-3.102c0,0-1.537-3.102-6.669-3.102
	C59.598,22.383,58.061,25.485,58.061,25.485z"/>
<path fill="none" stroke="#27235E" stroke-miterlimit="10" d="M36.968,25.485v3.102h13.338v-3.102c0,0-1.537-3.102-6.669-3.102
	S36.968,25.485,36.968,25.485z"/>
<path fill="none" stroke="#27235E" stroke-miterlimit="10" d="M28.149,50.746h3.102V37.409h-3.102c0,0-3.102,1.537-3.102,6.669
	S28.149,50.746,28.149,50.746z"/>
<path fill="none" stroke="#27235E" stroke-miterlimit="10" d="M80.893,37.409h-3.102v13.338h3.102c0,0,3.102-1.537,3.102-6.669
	S80.893,37.409,80.893,37.409z"/>
<path fill="none" stroke="#27235E" stroke-miterlimit="10" d="M58.061,62.674v-3.102h13.338v3.102c0,0-1.537,3.102-6.669,3.102
	C59.598,65.776,58.061,62.674,58.061,62.674z"/>
<path fill="none" stroke="#27235E" stroke-miterlimit="10" d="M36.968,62.674v-3.102h13.338v3.102c0,0-1.537,3.102-6.669,3.102
	S36.968,62.674,36.968,62.674z"/>
</svg>
