solid Moteino_Cover_Huddles
facet normal 0.0 1.0 0.0
  outer loop
    vertex 3.524958103184872e-16 -28.999999999999996 9.999999999999998
    vertex 48.0 -28.999999999999996 3.9999999999999996
    vertex 3.524958103184872e-16 -28.999999999999996 3.9999999999999996
  endloop
endfacet
facet normal 0.0 1.0 0.0
  outer loop
    vertex 48.0 -28.999999999999996 3.9999999999999996
    vertex 3.524958103184872e-16 -28.999999999999996 9.999999999999998
    vertex 48.0 -28.999999999999996 9.999999999999998
  endloop
endfacet
facet normal 0.0 0.0 1.0
  outer loop
    vertex -1.9999999999999996 -31.0 9.999999999999998
    vertex 3.524958103184872e-16 -28.999999999999996 9.999999999999998
    vertex -1.9999999999999996 0.9999999999999999 9.999999999999998
  endloop
endfacet
facet normal 0.0 0.0 1.0
  outer loop
    vertex 3.524958103184872e-16 -28.999999999999996 9.999999999999998
    vertex -1.9999999999999996 -31.0 9.999999999999998
    vertex 50.0 -31.0 9.999999999999998
  endloop
endfacet
facet normal 0.0 0.0 1.0
  outer loop
    vertex -1.9999999999999996 0.9999999999999999 9.999999999999998
    vertex 3.524958103184872e-16 -28.999999999999996 9.999999999999998
    vertex 3.3716990552203125e-16 -0.9999999999999992 9.999999999999998
  endloop
endfacet
facet normal 0.0 0.0 1.0
  outer loop
    vertex 3.524958103184872e-16 -28.999999999999996 9.999999999999998
    vertex 50.0 -31.0 9.999999999999998
    vertex 48.0 -28.999999999999996 9.999999999999998
  endloop
endfacet
facet normal 0.0 0.0 1.0
  outer loop
    vertex 48.0 -28.999999999999996 9.999999999999998
    vertex 50.0 -31.0 9.999999999999998
    vertex 48.0 -24.999999999999996 9.999999999999998
  endloop
endfacet
facet normal 0.0 0.0 1.0
  outer loop
    vertex 48.0 -24.999999999999996 9.999999999999998
    vertex 50.0 -31.0 9.999999999999998
    vertex 50.0 -24.999999999999996 9.999999999999998
  endloop
endfacet
facet normal 0.0 0.0 1.0
  outer loop
    vertex 50.0 -16.999999999999996 9.999999999999998
    vertex 48.0 -0.9999999999999999 9.999999999999998
    vertex 48.0 -16.999999999999996 9.999999999999998
  endloop
endfacet
facet normal 0.0 0.0 1.0
  outer loop
    vertex 3.3716990552203125e-16 -0.9999999999999992 9.999999999999998
    vertex 50.0 0.9999999999999999 9.999999999999998
    vertex -1.9999999999999996 0.9999999999999999 9.999999999999998
  endloop
endfacet
facet normal 0.0 0.0 1.0
  outer loop
    vertex 50.0 0.9999999999999999 9.999999999999998
    vertex 3.3716990552203125e-16 -0.9999999999999992 9.999999999999998
    vertex 48.0 -0.9999999999999999 9.999999999999998
  endloop
endfacet
facet normal 0.0 0.0 1.0
  outer loop
    vertex 50.0 0.9999999999999999 9.999999999999998
    vertex 48.0 -0.9999999999999999 9.999999999999998
    vertex 50.0 -16.999999999999996 9.999999999999998
  endloop
endfacet
facet normal -1.0 0.0 0.0
  outer loop
    vertex 48.0 -24.999999999999996 9.999999999999998
    vertex 48.0 -28.999999999999996 3.9999999999999996
    vertex 48.0 -28.999999999999996 9.999999999999998
  endloop
endfacet
facet normal -1.0 0.0 0.0
  outer loop
    vertex 48.0 -28.999999999999996 3.9999999999999996
    vertex 48.0 -24.999999999999996 9.999999999999998
    vertex 48.0 -26.999999999999996 3.9999999999999996
  endloop
endfacet
facet normal -1.0 0.0 0.0
  outer loop
    vertex 48.0 -26.999999999999996 3.9999999999999996
    vertex 48.0 -24.999999999999996 9.999999999999998
    vertex 48.0 -26.999999999999996 1.9999999999999998
  endloop
endfacet
facet normal -1.0 0.0 0.0
  outer loop
    vertex 48.0 -26.999999999999996 1.9999999999999998
    vertex 48.0 -24.999999999999996 9.999999999999998
    vertex 48.0 -24.999999999999996 1.9999999999999998
  endloop
endfacet
facet normal -1.5325904796455966e-17 -1.0 -0.0
  outer loop
    vertex 48.0 -0.9999999999999999 9.999999999999998
    vertex 3.3716990552203125e-16 -0.9999999999999992 3.9999999999999996
    vertex 48.0 -0.9999999999999999 3.9999999999999996
  endloop
endfacet
facet normal -1.5325904796455966e-17 -1.0 -0.0
  outer loop
    vertex 3.3716990552203125e-16 -0.9999999999999992 3.9999999999999996
    vertex 48.0 -0.9999999999999999 9.999999999999998
    vertex 3.3716990552203125e-16 -0.9999999999999992 9.999999999999998
  endloop
endfacet
facet normal 1.0 0.0 0.0
  outer loop
    vertex 3.3716990552203125e-16 -0.9999999999999992 3.9999999999999996
    vertex 3.524958103184872e-16 -28.999999999999996 9.999999999999998
    vertex 3.524958103184872e-16 -28.999999999999996 3.9999999999999996
  endloop
endfacet
facet normal 1.0 0.0 0.0
  outer loop
    vertex 3.524958103184872e-16 -28.999999999999996 9.999999999999998
    vertex 3.3716990552203125e-16 -0.9999999999999992 3.9999999999999996
    vertex 3.3716990552203125e-16 -0.9999999999999992 9.999999999999998
  endloop
endfacet
facet normal -0.0 1.0 -0.0
  outer loop
    vertex 48.0 -24.999999999999996 9.999999999999998
    vertex 50.0 -24.999999999999996 1.9999999999999998
    vertex 48.0 -24.999999999999996 1.9999999999999998
  endloop
endfacet
facet normal -0.0 1.0 -0.0
  outer loop
    vertex 50.0 -24.999999999999996 1.9999999999999998
    vertex 48.0 -24.999999999999996 9.999999999999998
    vertex 50.0 -24.999999999999996 9.999999999999998
  endloop
endfacet
facet normal 0.0 -1.0 0.0
  outer loop
    vertex 50.0 -16.999999999999996 9.999999999999998
    vertex 48.0 -16.999999999999996 1.9999999999999998
    vertex 50.0 -16.999999999999996 1.9999999999999998
  endloop
endfacet
facet normal 0.0 -1.0 0.0
  outer loop
    vertex 48.0 -16.999999999999996 1.9999999999999998
    vertex 50.0 -16.999999999999996 9.999999999999998
    vertex 48.0 -16.999999999999996 9.999999999999998
  endloop
endfacet
facet normal -1.0 0.0 0.0
  outer loop
    vertex 48.0 -0.9999999999999999 9.999999999999998
    vertex 48.0 -16.999999999999996 1.9999999999999998
    vertex 48.0 -16.999999999999996 9.999999999999998
  endloop
endfacet
facet normal -1.0 0.0 0.0
  outer loop
    vertex 48.0 -16.999999999999996 1.9999999999999998
    vertex 48.0 -0.9999999999999999 9.999999999999998
    vertex 48.0 -2.999999999999999 3.9999999999999996
  endloop
endfacet
facet normal -1.0 0.0 0.0
  outer loop
    vertex 48.0 -2.999999999999999 3.9999999999999996
    vertex 48.0 -0.9999999999999999 9.999999999999998
    vertex 48.0 -0.9999999999999999 3.9999999999999996
  endloop
endfacet
facet normal -1.0 0.0 0.0
  outer loop
    vertex 48.0 -2.999999999999999 1.9999999999999998
    vertex 48.0 -16.999999999999996 1.9999999999999998
    vertex 48.0 -2.999999999999999 3.9999999999999996
  endloop
endfacet
facet normal -0.0 -0.0 1.0
  outer loop
    vertex 50.0 -24.999999999999996 1.9999999999999998
    vertex 48.0 -16.999999999999996 1.9999999999999998
    vertex 48.0 -24.999999999999996 1.9999999999999998
  endloop
endfacet
facet normal -0.0 -0.0 1.0
  outer loop
    vertex 48.0 -16.999999999999996 1.9999999999999998
    vertex 50.0 -24.999999999999996 1.9999999999999998
    vertex 50.0 -16.999999999999996 1.9999999999999998
  endloop
endfacet
facet normal -0.0 -0.0 1.0
  outer loop
    vertex 48.0 -26.999999999999996 1.9999999999999998
    vertex 2.0000000000000018 -2.999999999999999 1.9999999999999998
    vertex 2.0000000000000013 -26.999999999999996 1.9999999999999998
  endloop
endfacet
facet normal -0.0 -0.0 1.0
  outer loop
    vertex 2.0000000000000018 -2.999999999999999 1.9999999999999998
    vertex 48.0 -26.999999999999996 1.9999999999999998
    vertex 48.0 -2.999999999999999 1.9999999999999998
  endloop
endfacet
facet normal -0.0 -0.0 1.0
  outer loop
    vertex 48.0 -2.999999999999999 1.9999999999999998
    vertex 48.0 -26.999999999999996 1.9999999999999998
    vertex 48.0 -24.999999999999996 1.9999999999999998
  endloop
endfacet
facet normal -0.0 -0.0 1.0
  outer loop
    vertex 48.0 -2.999999999999999 1.9999999999999998
    vertex 48.0 -24.999999999999996 1.9999999999999998
    vertex 48.0 -16.999999999999996 1.9999999999999998
  endloop
endfacet
facet normal 0.0 0.0 -1.0
  outer loop
    vertex 50.0 0.9999999999999999 0.0
    vertex -1.9999999999999996 -31.0 0.0
    vertex -1.9999999999999996 0.9999999999999999 0.0
  endloop
endfacet
facet normal 0.0 0.0 -1.0
  outer loop
    vertex -1.9999999999999996 -31.0 0.0
    vertex 50.0 0.9999999999999999 0.0
    vertex 50.0 -31.0 0.0
  endloop
endfacet
facet normal 0.0 -1.0 0.0
  outer loop
    vertex 48.0 -2.999999999999999 3.9999999999999996
    vertex 2.0000000000000018 -2.999999999999999 1.9999999999999998
    vertex 48.0 -2.999999999999999 1.9999999999999998
  endloop
endfacet
facet normal 0.0 -1.0 0.0
  outer loop
    vertex 2.0000000000000018 -2.999999999999999 1.9999999999999998
    vertex 48.0 -2.999999999999999 3.9999999999999996
    vertex 2.0000000000000018 -2.999999999999999 3.9999999999999996
  endloop
endfacet
facet normal -1.0 0.0 0.0
  outer loop
    vertex -1.9999999999999996 0.9999999999999999 9.999999999999998
    vertex -1.9999999999999996 -31.0 0.0
    vertex -1.9999999999999996 -31.0 9.999999999999998
  endloop
endfacet
facet normal -1.0 0.0 0.0
  outer loop
    vertex -1.9999999999999996 -31.0 0.0
    vertex -1.9999999999999996 0.9999999999999999 9.999999999999998
    vertex -1.9999999999999996 0.9999999999999999 0.0
  endloop
endfacet
facet normal -0.0 -1.0 -0.0
  outer loop
    vertex 50.0 -31.0 9.999999999999998
    vertex -1.9999999999999996 -31.0 0.0
    vertex 50.0 -31.0 0.0
  endloop
endfacet
facet normal -0.0 -1.0 -0.0
  outer loop
    vertex -1.9999999999999996 -31.0 0.0
    vertex 50.0 -31.0 9.999999999999998
    vertex -1.9999999999999996 -31.0 9.999999999999998
  endloop
endfacet
facet normal 0.0 1.0 0.0
  outer loop
    vertex -1.9999999999999996 0.9999999999999999 9.999999999999998
    vertex 50.0 0.9999999999999999 0.0
    vertex -1.9999999999999996 0.9999999999999999 0.0
  endloop
endfacet
facet normal 0.0 1.0 0.0
  outer loop
    vertex 50.0 0.9999999999999999 0.0
    vertex -1.9999999999999996 0.9999999999999999 9.999999999999998
    vertex 50.0 0.9999999999999999 9.999999999999998
  endloop
endfacet
facet normal 1.0 -0.0 -0.0
  outer loop
    vertex 50.0 -31.0 0.0
    vertex 50.0 -24.999999999999996 1.9999999999999998
    vertex 50.0 -31.0 9.999999999999998
  endloop
endfacet
facet normal 1.0 -0.0 -0.0
  outer loop
    vertex 50.0 -24.999999999999996 1.9999999999999998
    vertex 50.0 -31.0 0.0
    vertex 50.0 0.9999999999999999 0.0
  endloop
endfacet
facet normal 1.0 -0.0 -0.0
  outer loop
    vertex 50.0 -24.999999999999996 1.9999999999999998
    vertex 50.0 0.9999999999999999 0.0
    vertex 50.0 -16.999999999999996 1.9999999999999998
  endloop
endfacet
facet normal 1.0 -0.0 -0.0
  outer loop
    vertex 50.0 -16.999999999999996 1.9999999999999998
    vertex 50.0 0.9999999999999999 0.0
    vertex 50.0 -16.999999999999996 9.999999999999998
  endloop
endfacet
facet normal 1.0 -0.0 -0.0
  outer loop
    vertex 50.0 -16.999999999999996 9.999999999999998
    vertex 50.0 0.9999999999999999 0.0
    vertex 50.0 0.9999999999999999 9.999999999999998
  endloop
endfacet
facet normal 1.0 -0.0 -0.0
  outer loop
    vertex 50.0 -24.999999999999996 9.999999999999998
    vertex 50.0 -31.0 9.999999999999998
    vertex 50.0 -24.999999999999996 1.9999999999999998
  endloop
endfacet
facet normal 1.0 -1.409983241273949e-17 0.0
  outer loop
    vertex 2.0000000000000018 -2.999999999999999 1.9999999999999998
    vertex 2.0000000000000013 -26.999999999999996 3.9999999999999996
    vertex 2.0000000000000013 -26.999999999999996 1.9999999999999998
  endloop
endfacet
facet normal 1.0 -1.409983241273949e-17 0.0
  outer loop
    vertex 2.0000000000000013 -26.999999999999996 3.9999999999999996
    vertex 2.0000000000000018 -2.999999999999999 1.9999999999999998
    vertex 2.0000000000000018 -2.999999999999999 3.9999999999999996
  endloop
endfacet
facet normal 0.0 1.0 0.0
  outer loop
    vertex 2.0000000000000013 -26.999999999999996 3.9999999999999996
    vertex 48.0 -26.999999999999996 1.9999999999999998
    vertex 2.0000000000000013 -26.999999999999996 1.9999999999999998
  endloop
endfacet
facet normal 0.0 1.0 0.0
  outer loop
    vertex 48.0 -26.999999999999996 1.9999999999999998
    vertex 2.0000000000000013 -26.999999999999996 3.9999999999999996
    vertex 48.0 -26.999999999999996 3.9999999999999996
  endloop
endfacet
facet normal 0.0 0.0 1.0
  outer loop
    vertex 48.0 -28.999999999999996 3.9999999999999996
    vertex 2.0000000000000013 -26.999999999999996 3.9999999999999996
    vertex 3.524958103184872e-16 -28.999999999999996 3.9999999999999996
  endloop
endfacet
facet normal 0.0 0.0 1.0
  outer loop
    vertex 2.0000000000000013 -26.999999999999996 3.9999999999999996
    vertex 48.0 -28.999999999999996 3.9999999999999996
    vertex 48.0 -26.999999999999996 3.9999999999999996
  endloop
endfacet
facet normal 0.0 0.0 1.0
  outer loop
    vertex 3.3716990552203125e-16 -0.9999999999999992 3.9999999999999996
    vertex 2.0000000000000018 -2.999999999999999 3.9999999999999996
    vertex 48.0 -0.9999999999999999 3.9999999999999996
  endloop
endfacet
facet normal 0.0 0.0 1.0
  outer loop
    vertex 2.0000000000000018 -2.999999999999999 3.9999999999999996
    vertex 3.3716990552203125e-16 -0.9999999999999992 3.9999999999999996
    vertex 3.524958103184872e-16 -28.999999999999996 3.9999999999999996
  endloop
endfacet
facet normal 0.0 0.0 1.0
  outer loop
    vertex 2.0000000000000018 -2.999999999999999 3.9999999999999996
    vertex 3.524958103184872e-16 -28.999999999999996 3.9999999999999996
    vertex 2.0000000000000013 -26.999999999999996 3.9999999999999996
  endloop
endfacet
facet normal 0.0 0.0 1.0
  outer loop
    vertex 48.0 -0.9999999999999999 3.9999999999999996
    vertex 2.0000000000000018 -2.999999999999999 3.9999999999999996
    vertex 48.0 -2.999999999999999 3.9999999999999996
  endloop
endfacet
endsolid Moteino_Cover_Huddles
