<?xml version="1.0" encoding="utf-8"?>
<!-- Generator: Adobe Illustrator 17.1.0, SVG Export Plug-In . SVG Version: 6.00 Build 0)  -->
<!DOCTYPE svg PUBLIC "-//W3C//DTD SVG 1.1//EN" "http://www.w3.org/Graphics/SVG/1.1/DTD/svg11.dtd">
<svg version="1.1" id="Layer_1" xmlns="http://www.w3.org/2000/svg" xmlns:xlink="http://www.w3.org/1999/xlink" x="0px" y="0px"
	 viewBox="0 0 49.434 49.5" enable-background="new 0 0 49.434 49.5" xml:space="preserve">
<g>
	<path fill="none" stroke="#27235E" stroke-width="1.5" stroke-miterlimit="10" d="M24.717,0.741c-13.256,0-24,10.744-24,24
		c0,13.256,10.744,24,24,24c13.256,0,24-10.744,24-24C48.717,11.485,37.973,0.741,24.717,0.741z"/>
	<path fill="none" stroke="#27235E" stroke-width="1.5" stroke-miterlimit="10" d="M43.598,39.559
		c-2.193-0.916-9.338-3.482-12.541-4.43c-0.275-0.086-0.316-0.1-0.316-1.236c0-0.939,0.385-1.887,0.762-2.688
		c0.41-0.869,0.894-2.332,1.066-3.645c0.488-0.565,1.15-1.678,1.574-3.801c0.375-1.869,0.199-2.551-0.047-3.189
		c-0.027-0.066-0.055-0.133-0.072-0.199c-0.094-0.439,0.033-2.717,0.353-4.484c0.223-1.213-0.055-3.793-1.725-5.926
		c-1.055-1.35-3.074-3.004-6.76-3.234l-2.021,0.002c-3.623,0.228-5.643,1.883-6.697,3.232c-1.67,2.133-1.947,4.713-1.727,5.924
		c0.322,1.77,0.449,4.047,0.357,4.477c-0.019,0.076-0.047,0.143-0.074,0.209c-0.246,0.639-0.422,1.32-0.047,3.189
		c0.424,2.123,1.086,3.236,1.574,3.801c0.172,1.312,0.656,2.775,1.066,3.645c0.299,0.637,0.439,1.504,0.439,2.729
		c0,1.137-0.043,1.15-0.299,1.232c-3.314,0.979-10.541,3.685-12.508,4.546"/>
</g>
</svg>
